<?xml version="1.0" encoding="UTF-8"?>
<!DOCTYPE svg PUBLIC "-//W3C//DTD SVG 1.1//EN" "http://www.w3.org/Graphics/SVG/1.1/DTD/svg11.dtd">
<!-- Creator: CorelDRAW 2018 (64 Bit) -->
<svg xmlns="http://www.w3.org/2000/svg" xml:space="preserve" width="34.652mm" height="37.2848mm" version="1.1" style="shape-rendering:geometricPrecision; text-rendering:geometricPrecision; image-rendering:optimizeQuality; fill-rule:evenodd; clip-rule:evenodd"
viewBox="0 0 3465.2 3728.48"
 xmlns:xlink="http://www.w3.org/1999/xlink">
 <defs>
  <style type="text/css">
   <![CDATA[
    .str3 {stroke:#A9ABAE;stroke-width:100;stroke-miterlimit:22.9256}
    .str0 {stroke:#96989A;stroke-width:100;stroke-miterlimit:22.9256}
    .str1 {stroke:#1C3868;stroke-width:100;stroke-miterlimit:22.9256}
    .str2 {stroke:#96989A;stroke-width:20;stroke-miterlimit:22.9256}
    .fil3 {fill:none}
    .fil1 {fill:none;fill-rule:nonzero}
    .fil4 {fill:#A9ABAE}
    .fil2 {fill:#96989A}
    .fil0 {fill:#FEFEFE}
    .fil5 {fill:#96989A;fill-rule:nonzero}
   ]]>
  </style>
 </defs>
 <g id="Camada_x0020_1">
  <metadata id="CorelCorpID_0Corel-Layer"/>
  <path class="fil0 str0" d="M1225.58 2205.01l425.59 93.71 435.18 -397.65 -137.21 -373.13 -723.56 677.07zm1202.06 259.59l529.89 126.86 91.94 -438.26 -109.29 -26.02 104.17 -547.55 -428.74 16.57 -187.97 868.4z"/>
  <polygon class="fil1 str1" points="2.76,362.99 0.01,355.57 0.01,355.57 "/>
  <polygon class="fil2 str2" points="2405.33,1605.8 2696.97,1341.33 2637.79,1641.88 3032.05,1683.2 3113.48,1329.45 3243.46,1359.06 3350.09,934.47 2730.32,796.71 2265.46,1228.15 "/>
  <polygon class="fil3 str3" points="1945,1525.73 2077.45,1885.88 2539.81,1994.6 2368.89,1529.47 "/>
  <polygon class="fil4 str3" points="1664.35,1678.19 1789.21,1076.11 1999.16,1647.04 2414.71,1658.68 2185.49,1012.27 2908.82,347.76 2478.43,251.78 1840.57,835.38 1995.51,130.2 1466.48,-0.01 1376.27,407.52 1496.01,436.75 1301.64,1288.43 1187.02,1259.96 1103.68,1647.49 "/>
  <path class="fil5" d="M3021.09 2490.35l-2344.47 -7.57 218.03 -788.11 2312.34 40.94 -185.9 754.74zm-2118.11 769.89c29.53,-29.43 68.78,-45.66 110.48,-45.57 10.53,0.02 20.84,1.08 30.81,3.09 71.36,14.45 125.21,77.71 125.1,153.22l0 0.05c-0.12,86.08 -70.27,156.04 -156.33,155.92 -86.11,-0.31 -156.06,-70.27 -155.93,-156.33 0.04,-41.76 16.36,-80.91 45.87,-110.38zm1415.75 -43.79c10.59,-0.02 20.98,1.06 31.12,3.11 29.83,6.04 57.27,20.7 79.23,42.74 29.45,29.54 45.66,68.8 45.57,110.51l0 0.03c-0.04,41.7 -16.32,80.87 -45.85,110.32 -29.53,29.45 -68.79,45.61 -110.45,45.59 -41.92,-0.01 -80.98,-16.41 -110.37,-45.87 -29.44,-29.56 -45.64,-68.79 -45.57,-110.5 0.11,-86.09 70.28,-156.05 156.32,-155.93zm-1385.83 -1713.75l95.93 -377.77 -207.02 -46.21 -482.17 -115.05 -43.54 202.81 470.85 111.26 -464.11 1827.2 231.72 15.51 223.83 2.27c-64.94,66.7 -100.9,154.33 -101.03,247.6 -0.22,172.19 122.51,316.41 285.18,349.3 22.73,4.6 46.2,7.03 70.23,7.08 196.22,0.21 356.07,-159.23 356.36,-355.43l0 0.04c0.14,-96.28 -38.32,-183.68 -100.59,-247.9l795.4 1.09c-62.41,64.04 -101.14,151.33 -101.27,247.58 -0.14,95.05 36.75,184.52 103.9,251.8 50.11,50.25 112.6,83.71 180.62,97.47 23.1,4.67 46.81,7.08 70.87,7.13 95.06,0.12 184.45,-36.8 251.77,-103.89 67.32,-67.12 104.43,-156.45 104.57,-251.47 0.13,-93.33 -35.59,-181.09 -100.34,-247.92l478.88 1.54 49.78 -194.73 -2537.86 -12.09 61.86 -241.97 2434.17 7.2 105.98 -4.07 298.31 -1111.42 -2532.28 -66.96z"/>
 </g>
</svg>
